<?xml version="1.0" encoding="utf-8"?>
<!-- Generator: Adobe Illustrator 26.5.0, SVG Export Plug-In . SVG Version: 6.00 Build 0)  -->
<svg version="1.1" id="Layer_1" xmlns="http://www.w3.org/2000/svg" xmlns:xlink="http://www.w3.org/1999/xlink" x="0px" y="0px"
	 viewBox="0 0 184 212" style="enable-background:new 0 0 184 212;" xml:space="preserve">
<style type="text/css">
	.st0{fill:#1D2A38;}
	.st1{fill:#FDD037;}
	.st2{fill:#F24333;}
	.st3{display:none;}
	.st4{display:inline;fill:#FF6600;}
</style>
<g>
	<path class="st0" d="M163.4,152.3c-2.5,4.4-5.4,8.5-8.8,12.3l0.1,0.1l-3.1,3.1c-13.9,14-32.4,21.7-52.1,21.7
		c-19.6,0-38.1-7.6-51.9-21.5c-13.9-13.9-21.5-32.3-21.5-51.9c0-1.4,0-2.9,0.1-4.4c0-0.2,0-0.4,0-0.6l0-0.1c0-0.1,0-0.3,0-0.4l0-0.1
		c0-0.3,0-0.6,0.1-0.9c0-0.2,0-0.5,0.1-0.8c0-0.4,0.1-0.8,0.1-1.2c0-0.2,0.1-0.5,0.1-0.7c0-0.3,0.1-0.7,0.1-1c0-0.2,0.1-0.4,0.1-0.6
		c0-0.3,0.1-0.7,0.2-1.1c0-0.2,0.1-0.4,0.1-0.6c0-0.2,0.1-0.4,0.1-0.5c0-0.2,0.1-0.5,0.1-0.8c0-0.2,0.1-0.5,0.1-0.7
		c0.1-0.3,0.1-0.6,0.2-0.9c0.4-2,0.9-4,1.5-6l0-0.1c0.1-0.3,0.2-0.5,0.2-0.8c0.1-0.2,0.1-0.4,0.2-0.7c0.4-1.3,0.9-2.6,1.4-3.8
		c0.1-0.2,0.1-0.4,0.2-0.5c0.1-0.2,0.2-0.4,0.2-0.6c0.1-0.2,0.2-0.5,0.3-0.8c0.1-0.2,0.2-0.4,0.3-0.7l0-0.1c0.1-0.3,0.3-0.6,0.4-0.9
		c0.1-0.2,0.2-0.4,0.3-0.7c1.9-4,4.1-7.9,6.7-11.5l0.4-0.6c0.3-0.4,0.6-0.8,0.9-1.2c0.1-0.2,0.3-0.4,0.4-0.6c0.3-0.4,0.6-0.8,1-1.2
		c0.2-0.2,0.4-0.5,0.6-0.7c0.2-0.2,0.4-0.5,0.6-0.7c0.2-0.2,0.4-0.5,0.6-0.7c0.2-0.3,0.5-0.5,0.7-0.8l-8.6-8.6
		c-14.3,15.8-22.2,36.1-22.2,57.5c0,22.9,8.9,44.4,25.1,60.5c16.2,16.2,37.7,25.1,60.5,25.1c22.9,0,44.5-9,60.7-25.2
		c4.6-4.6,8.7-9.8,12.1-15.3L163.4,152.3z"/>
	<path class="st1" d="M53.9,161.7c12.2,12.2,28.4,18.9,45.7,18.9c0.5,0,1.1,0,1.6,0c0.3,0,0.5,0,0.8,0h0c0.4,0,0.8,0,1.2-0.1
		c0.3,0,0.6,0,0.9-0.1c0.2,0,0.3,0,0.4,0l0.2,0c0.3,0,0.6,0,0.9-0.1c0.3,0,0.5,0,0.8-0.1c0.2,0,0.3,0,0.5-0.1l0.3,0
		c0.2,0,0.4-0.1,0.6-0.1c0.8-0.1,1.6-0.2,2.3-0.3c0.2,0,0.4-0.1,0.6-0.1l0.1,0c0.2,0,0.3-0.1,0.5-0.1l0.1,0c0.2,0,0.4-0.1,0.7-0.1
		c0.6-0.1,1.1-0.2,1.7-0.4c0.4-0.1,0.8-0.2,1.1-0.3l0,0c0.1,0,0.2,0,0.3-0.1c0.3-0.1,0.5-0.1,0.8-0.2c0.2-0.1,0.4-0.1,0.6-0.2
		c0.2,0,0.3-0.1,0.5-0.1c0.1,0,0.3-0.1,0.4-0.1l0.1,0c0.2,0,0.3-0.1,0.5-0.1c0.3-0.1,0.5-0.1,0.7-0.2c0.2-0.1,0.4-0.1,0.5-0.2
		c0.5-0.2,1.1-0.4,1.6-0.5c0.2-0.1,0.3-0.1,0.4-0.2l0.1,0c0.2-0.1,0.4-0.1,0.5-0.2c0.3-0.1,0.5-0.2,0.7-0.3c0.2-0.1,0.4-0.1,0.5-0.2
		c0.3-0.1,0.6-0.3,0.9-0.4l0.9-0.4c0.3-0.1,0.6-0.2,0.8-0.4c0.2-0.1,0.3-0.1,0.4-0.2l0.1-0.1c0.2-0.1,0.4-0.2,0.7-0.3
		c1.4-0.6,2.7-1.3,4-2.1c0.1-0.1,0.3-0.2,0.4-0.2c0.3-0.2,0.6-0.3,0.9-0.5l1.5-0.9c0.7-0.4,1.3-0.9,2.1-1.4c0.2-0.1,0.4-0.3,0.6-0.4
		l0.1-0.1c0.2-0.1,0.3-0.2,0.4-0.3l0,0c0.1-0.1,0.2-0.2,0.3-0.2l0,0c0.2-0.1,0.4-0.3,0.6-0.4c0.2-0.2,0.4-0.3,0.6-0.5
		c0.1-0.1,0.3-0.2,0.4-0.3l0.1-0.1c0.2-0.2,0.4-0.3,0.6-0.5c0.2-0.2,0.4-0.3,0.6-0.5l0.1,0c0.4-0.3,0.8-0.6,1.2-1
		c0.1-0.1,0.2-0.2,0.4-0.3l-8.6-8.6c-9.5,8.1-21.4,12.5-33.9,12.5c-28.9,0-52.4-23.5-52.4-52.4c0-14.1,5.5-27.3,15.5-37.2
		c4.7-4.6,10.3-8.4,16.4-11l-9.2-9.2c-5.8,3-11.2,6.9-15.9,11.6c-12.3,12.2-19.1,28.5-19.1,45.8C34.9,133.3,41.7,149.6,53.9,161.7z"
		/>
	<path class="st2" d="M172.8,100c0-22.9-8.9-44.4-25.1-60.5C131.5,23.3,110,14.4,87.2,14.4c-22.9,0-44.5,9-60.7,25.2
		c-4.6,4.6-8.7,9.8-12.1,15.3l8.9,8.9c2.5-4.4,5.5-8.5,8.8-12.3L32,51.4l3.1-3.1c13.9-14,32.4-21.7,52.1-21.7
		c19.6,0,38.1,7.6,51.9,21.5c13.9,13.9,21.5,32.3,21.5,51.9c0,1.5,0,2.9-0.1,4.4c0,0.2,0,0.4,0,0.6c0,0.1,0,0.3,0,0.5l0,0.1
		c0,0.3,0,0.6-0.1,0.9c0,0.3,0,0.5-0.1,0.8c0,0.4-0.1,0.8-0.1,1.2c0,0.2-0.1,0.5-0.1,0.7c0,0.3-0.1,0.7-0.1,1c0,0.2-0.1,0.4-0.1,0.6
		c0,0.3-0.1,0.7-0.2,1.1c0,0.2-0.1,0.4-0.1,0.6c0,0.2-0.1,0.4-0.1,0.5c0,0.2-0.1,0.5-0.1,0.8c0,0.2-0.1,0.5-0.1,0.7
		c-0.1,0.3-0.1,0.6-0.2,0.9c-0.4,2-0.9,4-1.5,6c-0.1,0.3-0.2,0.5-0.3,0.8c-0.1,0.2-0.1,0.4-0.2,0.7c-0.4,1.3-0.9,2.6-1.4,3.8
		c-0.1,0.2-0.1,0.4-0.2,0.5c-0.1,0.2-0.2,0.4-0.2,0.6c-0.1,0.2-0.2,0.5-0.3,0.8c-0.1,0.2-0.2,0.4-0.3,0.7l0,0.1
		c-0.1,0.3-0.3,0.6-0.4,0.9c-0.1,0.2-0.2,0.5-0.3,0.7c-1.9,4-4.1,7.9-6.7,11.5l-0.4,0.6c-0.3,0.4-0.6,0.8-0.9,1.2
		c-0.1,0.2-0.3,0.4-0.4,0.6c-0.3,0.4-0.6,0.8-1,1.2c-0.2,0.2-0.4,0.5-0.6,0.7c-0.2,0.2-0.4,0.4-0.5,0.6l0,0
		c-0.2,0.2-0.4,0.5-0.6,0.7c-0.2,0.3-0.5,0.5-0.7,0.8l8.6,8.6C164.9,141.7,172.8,121.4,172.8,100z"/>
	<path class="st0" d="M107.7,148.2l9.2,9.2c5.8-3,11.2-6.9,15.9-11.6c12.3-12.2,19.1-28.5,19.1-45.8c0-17.2-6.7-33.5-18.9-45.7
		c-12.2-12.2-28.4-18.9-45.7-18.9c-0.5,0-1.1,0-1.6,0c-0.3,0-0.5,0-0.8,0h0c-0.4,0-0.8,0-1.2,0.1c-0.3,0-0.6,0-0.9,0.1
		c-0.2,0-0.3,0-0.4,0l-0.2,0c-0.3,0-0.6,0-0.9,0.1c-0.3,0-0.5,0-0.8,0.1c-0.2,0-0.3,0-0.5,0.1l-0.3,0c0,0-0.1,0-0.1,0
		c-0.2,0-0.4,0-0.6,0.1c-0.8,0.1-1.6,0.2-2.3,0.3c-0.2,0-0.4,0.1-0.6,0.1l-0.1,0c-0.2,0-0.3,0.1-0.5,0.1l-0.1,0
		c-0.2,0-0.4,0.1-0.6,0.1c-0.6,0.1-1.2,0.2-1.7,0.4c-0.4,0.1-0.8,0.2-1.1,0.3l0,0c-0.1,0-0.2,0-0.3,0.1c-0.3,0.1-0.5,0.1-0.8,0.2
		c-0.2,0.1-0.4,0.1-0.6,0.2c-0.2,0-0.3,0.1-0.5,0.1C69.3,38,69.2,38,69,38L69,38c-0.2,0-0.3,0.1-0.5,0.1c-0.3,0.1-0.5,0.1-0.7,0.2
		c-0.2,0.1-0.4,0.1-0.5,0.2c-0.5,0.2-1.1,0.4-1.6,0.5c-0.1,0-0.3,0.1-0.4,0.1l-0.1,0c-0.2,0.1-0.3,0.1-0.5,0.2
		c-0.3,0.1-0.5,0.2-0.8,0.3c-0.2,0.1-0.4,0.1-0.5,0.2c-0.3,0.1-0.6,0.3-0.9,0.4l-0.9,0.4c-0.3,0.1-0.6,0.2-0.8,0.4
		c-0.2,0.1-0.3,0.1-0.4,0.2l-0.1,0.1c-0.2,0.1-0.4,0.2-0.7,0.3c-1.4,0.6-2.7,1.3-4,2.1c-0.1,0.1-0.3,0.2-0.4,0.2
		c-0.3,0.2-0.6,0.3-0.8,0.5l-0.9,0.6c-0.2,0.1-0.4,0.2-0.6,0.4c-0.7,0.4-1.3,0.9-2.1,1.4c-0.2,0.1-0.4,0.3-0.6,0.4l-0.1,0.1
		c-0.2,0.1-0.3,0.2-0.5,0.3l-0.1,0c-0.1,0.1-0.2,0.2-0.3,0.2l0,0c-0.2,0.1-0.4,0.3-0.6,0.4c-0.2,0.2-0.4,0.3-0.6,0.5
		c-0.1,0.1-0.3,0.2-0.4,0.3l-0.1,0.1c-0.2,0.2-0.4,0.3-0.6,0.5c-0.2,0.2-0.5,0.4-0.7,0.5c-0.4,0.3-0.8,0.6-1.2,1
		c-0.1,0.1-0.2,0.2-0.4,0.3l8.6,8.6c9.5-8.1,21.4-12.5,33.9-12.5c28.9,0,52.4,23.5,52.4,52.4c0,14.1-5.5,27.3-15.5,37.2
		C119.3,141.9,113.7,145.6,107.7,148.2z"/>
	<g class="st3">
		<polygon class="st4" points="21.2,248.4 20.3,251.2 22.2,251.2 21.2,248.4 		"/>
		<path class="st4" d="M22.6,232.3c-0.3,1.4-0.9,2.5-1.8,3.3c-0.9,0.7-2,1.1-3.3,1.1c-1.1,0-2-0.3-3-0.8c-0.9-0.5-1.6-1.4-2-2.4
			c-0.5-1.1-0.7-2.4-0.7-3.9c0-1.1,0.2-2.3,0.6-3.3c0.4-1.1,1-1.9,1.9-2.5c0.9-0.6,2-0.9,3.4-0.9c1.2,0,2.1,0.3,2.9,0.8
			c0.8,0.6,1.4,1.5,1.8,2.7l0.1,0.1l2.7-0.6l-0.1-0.2c-0.5-1.6-1.4-2.9-2.6-3.9c-1.2-0.9-2.8-1.4-4.6-1.4c-1.6,0-3.1,0.3-4.4,1.1
			c-1.3,0.7-2.4,1.8-3.1,3.2c-0.7,1.4-1.1,3-1.1,4.9c0,1.7,0.3,3.3,1,4.8c0.6,1.5,1.6,2.7,2.8,3.4c1.2,0.8,2.8,1.2,4.8,1.2
			c1.9,0,3.5-0.5,4.8-1.5c1.3-1,2.2-2.5,2.7-4.5l0.1-0.2l-2.7-0.7L22.6,232.3z"/>
		<path class="st4" d="M46.9,221.6c-1.4-0.8-2.9-1.2-4.6-1.2c-2.6,0-4.7,0.9-6.3,2.5c-1.6,1.7-2.4,4-2.4,7c0,1.6,0.3,3.1,1.1,4.5
			c0.7,1.4,1.7,2.5,3.1,3.3c1.4,0.8,2.9,1.2,4.6,1.2c1.6,0,3.1-0.4,4.4-1.1c1.4-0.7,2.4-1.8,3.2-3.3c0.7-1.4,1.1-3.1,1.1-4.9
			c0-1.8-0.4-3.4-1.1-4.8C49.3,223.5,48.3,222.4,46.9,221.6z M46.6,234.9c-1.1,1.2-2.6,1.8-4.3,1.8c-1.7,0-3.1-0.6-4.3-1.8
			c-1.1-1.2-1.7-2.8-1.7-4.9c0-2.6,0.6-4.5,1.8-5.6c1.2-1.1,2.6-1.6,4.2-1.6c1.2,0,2.2,0.3,3.1,0.8c0.9,0.6,1.6,1.4,2.1,2.4
			c0.5,1,0.7,2.3,0.7,3.7C48.3,231.9,47.7,233.7,46.6,234.9z"/>
		<path class="st4" d="M74.3,221.2L70,233.4c-0.3,1-0.6,1.8-0.8,2.4l-0.7-2.1L64.2,221h-0.3v6.5l4,11.4h2.4l4-11.4V221.2z"/>
		<rect x="60.4" y="221" class="st4" width="2.6" height="17.9"/>
		<rect x="75.2" y="221" class="st4" width="2.6" height="17.9"/>
		<rect x="87.1" y="221" class="st4" width="2.7" height="17.9"/>
		<path class="st4" d="M100.6,223.8c-0.4-0.7-0.9-1.4-1.5-1.8c-0.6-0.4-1.4-0.7-2.3-0.9c-0.6-0.1-1.6-0.2-2.8-0.2h-3.3v2.4h3.5
			c1.1,0,1.8,0.1,2.2,0.2c0.6,0.2,1.1,0.5,1.4,1c0.4,0.5,0.5,1.1,0.5,1.8c0,1-0.3,1.7-0.9,2.2c-0.6,0.5-1.7,0.8-3.2,0.8h-3.5v2.4
			h3.5c2.5,0,4.4-0.6,5.4-1.6c1-1.1,1.5-2.4,1.5-3.9C101.1,225.4,101,224.6,100.6,223.8z"/>
		<path class="st4" d="M117.4,221l-7,17.9h2.8l0.8-2.1h0l2-5.4l0.4-1.1l1.5-4h0c0.3-0.9,0.6-1.8,0.8-2.7c0.3,0.9,0.6,1.9,1.1,3.1
			l1.8,4.7h-4.6l-0.8,2.2h6.3l2.1,5.3h3.1l-7.5-17.9H117.4z"/>
		<rect x="136.7" y="221" class="st4" width="2.5" height="17.9"/>
		<polygon class="st4" points="148.6,234.5 148.5,234.4 148.5,239 151.2,239 151.2,221 148.6,221 		"/>
		<polygon class="st4" points="140.2,226.8 147.6,237.6 147.6,233 140.2,222.2 		"/>
		<path class="st4" d="M174.4,221l-3.5,5.3c-0.7,1-1.3,2-1.8,2.9v0l-1.5,2.3v7.6h2.7v-7.6l7.3-10.4H174.4z"/>
		<polygon class="st4" points="168.5,228.2 167.3,226.4 163.8,221 160.5,221 167,230.5 		"/>
		<polygon class="st4" points="9.1,247.9 10.9,247.9 10.9,253.5 11.9,253.5 11.9,247.9 13.6,247.9 13.6,247 9.1,247 		"/>
		<path class="st4" d="M20.8,247l-2.4,6.5h1l0.5-1.5h2.5l0.5,1.5h1l-2.4-6.5H20.8z M20.3,251.2l0.9-2.8h0l0.9,2.8H20.3z"/>
		<path class="st4" d="M32.1,250.9h1.3v0.3c0,0.4-0.1,0.7-0.4,1c-0.2,0.3-0.6,0.4-0.9,0.4c-0.2,0-0.4,0-0.6-0.1
			c-0.2-0.1-0.3-0.2-0.4-0.3c-0.1-0.1-0.2-0.3-0.3-0.5c0-0.2-0.1-0.7-0.1-1.3c0-0.6,0-1.1,0.1-1.3c0-0.2,0.1-0.4,0.3-0.5
			c0.1-0.1,0.2-0.2,0.4-0.3c0.2-0.1,0.4-0.1,0.6-0.1c0.3,0,0.6,0.1,0.8,0.3c0.2,0.2,0.4,0.4,0.4,0.7h1c-0.1-0.5-0.4-1-0.7-1.4
			c-0.4-0.4-0.9-0.6-1.5-0.6c-0.5,0-0.9,0.1-1.3,0.4c-0.3,0.2-0.6,0.5-0.8,0.8c-0.1,0.2-0.2,0.4-0.2,0.6c0,0.3-0.1,0.8-0.1,1.5
			c0,0.7,0,1.2,0.1,1.5c0,0.1,0.1,0.3,0.1,0.3c0,0.1,0.1,0.2,0.1,0.3c0.2,0.3,0.4,0.6,0.8,0.8c0.3,0.2,0.8,0.4,1.3,0.4
			c0.7,0,1.2-0.2,1.6-0.7c0.4-0.4,0.7-1,0.7-1.6v-1.3h-2.3V250.9z"/>
		<polygon class="st4" points="42,247 41.1,247 41.1,253.5 45.2,253.5 45.2,252.6 42,252.6 		"/>
		<rect x="51.6" y="247" class="st4" width="1" height="6.5"/>
		<polygon class="st4" points="63.3,251.6 63.3,251.6 60.4,247 59.5,247 59.5,253.5 60.4,253.5 60.4,248.9 60.5,248.9 63.4,253.5 
			64.3,253.5 64.3,247 63.3,247 		"/>
		<polygon class="st4" points="71.2,253.5 75.3,253.5 75.3,252.6 72.2,252.6 72.2,250.7 74.9,250.7 74.9,249.8 72.2,249.8 72.2,248 
			75.3,248 75.3,247 71.2,247 		"/>
		<path class="st4" d="M91.5,250.9h1.3v0.3c0,0.4-0.1,0.7-0.4,1c-0.2,0.3-0.6,0.4-0.9,0.4c-0.2,0-0.4,0-0.6-0.1
			c-0.2-0.1-0.3-0.2-0.4-0.3c-0.1-0.1-0.2-0.3-0.3-0.5c0-0.2-0.1-0.7-0.1-1.3c0-0.6,0-1.1,0.1-1.3c0-0.2,0.1-0.4,0.3-0.5
			c0.1-0.1,0.2-0.2,0.4-0.3c0.2-0.1,0.4-0.1,0.6-0.1c0.3,0,0.6,0.1,0.8,0.3c0.2,0.2,0.4,0.4,0.4,0.7h1c-0.1-0.5-0.4-1-0.7-1.4
			c-0.4-0.4-0.9-0.6-1.5-0.6c-0.5,0-0.9,0.1-1.3,0.4c-0.3,0.2-0.6,0.5-0.8,0.8c-0.1,0.2-0.2,0.4-0.2,0.6c0,0.3-0.1,0.8-0.1,1.5
			c0,0.7,0,1.2,0.1,1.5c0,0.1,0.1,0.3,0.1,0.3c0,0.1,0.1,0.2,0.1,0.3c0.2,0.3,0.4,0.6,0.8,0.8c0.3,0.2,0.8,0.4,1.3,0.4
			c0.7,0,1.2-0.2,1.6-0.7c0.4-0.4,0.7-1,0.7-1.6v-1.3h-2.3V250.9z"/>
		<path class="st4" d="M104.6,248.1c-0.2-0.3-0.4-0.6-0.7-0.8c-0.3-0.2-0.8-0.4-1.3-0.4c-0.5,0-0.9,0.1-1.3,0.4
			c-0.3,0.2-0.6,0.5-0.8,0.8c-0.1,0.2-0.2,0.4-0.2,0.6c0,0.3-0.1,0.8-0.1,1.5c0,0.7,0,1.2,0.1,1.5c0,0.1,0.1,0.3,0.1,0.3
			c0,0.1,0.1,0.2,0.1,0.3c0.2,0.3,0.4,0.6,0.8,0.8c0.3,0.2,0.8,0.4,1.3,0.4c0.5,0,0.9-0.1,1.3-0.4c0.3-0.2,0.6-0.5,0.7-0.8
			c0.1-0.2,0.2-0.4,0.2-0.6c0-0.3,0.1-0.8,0.1-1.5c0-0.8,0-1.3-0.1-1.5C104.8,248.5,104.7,248.3,104.6,248.1z M103.8,251.6
			c0,0.2-0.1,0.4-0.3,0.5c-0.1,0.1-0.2,0.2-0.4,0.3c-0.2,0.1-0.4,0.1-0.6,0.1c-0.2,0-0.4,0-0.6-0.1c-0.2-0.1-0.3-0.2-0.4-0.3
			c-0.1-0.1-0.2-0.3-0.3-0.5c0-0.2-0.1-0.7-0.1-1.3c0-0.6,0-1.1,0.1-1.3c0-0.2,0.1-0.4,0.3-0.5c0.1-0.1,0.2-0.2,0.4-0.3
			c0.2-0.1,0.4-0.1,0.6-0.1c0.2,0,0.4,0.1,0.6,0.1c0.2,0.1,0.3,0.2,0.4,0.3c0.1,0.1,0.2,0.3,0.3,0.5c0,0.2,0.1,0.7,0.1,1.3
			C103.9,250.9,103.9,251.4,103.8,251.6z"/>
		<polygon class="st4" points="111.5,253.5 115.6,253.5 115.6,252.6 112.5,252.6 112.5,250.7 115.2,250.7 115.2,249.8 112.5,249.8 
			112.5,248 115.6,248 115.6,247 111.5,247 		"/>
		<path class="st4" d="M124.5,249.8c-0.3,0-0.6-0.1-0.7-0.1c-0.3-0.1-0.6-0.2-0.7-0.3c-0.1-0.2-0.2-0.3-0.2-0.5
			c0-0.3,0.1-0.5,0.3-0.7c0.2-0.2,0.5-0.2,0.8-0.2c0.6,0,1.1,0.2,1.6,0.5l0.5-0.8c-0.6-0.4-1.3-0.7-2.1-0.7c-0.7,0-1.2,0.2-1.6,0.5
			c-0.4,0.3-0.6,0.8-0.6,1.4c0,0.5,0.2,0.9,0.5,1.2c0.3,0.3,0.7,0.5,1.3,0.6c0.3,0,0.6,0.1,0.9,0.1c0.6,0.1,0.9,0.4,0.8,0.9
			c0,0.6-0.4,0.9-1.3,0.9c-0.7,0-1.3-0.2-1.8-0.6l-0.6,0.7c0.7,0.6,1.5,0.9,2.5,0.9c1.5,0,2.2-0.6,2.3-1.9c0-0.5-0.1-0.9-0.4-1.2
			C125.5,250.1,125.1,249.9,124.5,249.8z"/>
		<polygon class="st4" points="144,249.8 141.4,249.8 141.4,247 140.4,247 140.4,253.5 141.4,253.5 141.4,250.7 144,250.7 
			144,253.5 145,253.5 145,247 144,247 		"/>
		<polygon class="st4" points="151.8,253.5 156,253.5 156,252.6 152.8,252.6 152.8,250.7 155.5,250.7 155.5,249.8 152.8,249.8 
			152.8,248 156,248 156,247 151.8,247 		"/>
		<path class="st4" d="M166.9,248.8c0-0.6-0.2-1.1-0.6-1.4c-0.3-0.3-0.8-0.4-1.3-0.4h-2.5v6.5h1v-2.8h1.3l1.3,2.8h1.2l-1.5-2.9
			C166.5,250.3,166.9,249.7,166.9,248.8z M163.4,249.9v-2h1.5c0.3,0,0.6,0.1,0.7,0.2c0.2,0.2,0.3,0.4,0.3,0.7c0,0.3-0.1,0.5-0.3,0.7
			c-0.2,0.2-0.5,0.3-0.8,0.3H163.4z"/>
		<polygon class="st4" points="173.4,253.5 177.6,253.5 177.6,252.6 174.4,252.6 174.4,250.7 177.1,250.7 177.1,249.8 174.4,249.8 
			174.4,248 177.6,248 177.6,247 173.4,247 		"/>
	</g>
</g>
</svg>
